<svg width="24" height="24" viewBox="0 0 24 24" fill="none" xmlns="http://www.w3.org/2000/svg">
<g clip-path="url(#clip0_62_2134)">
<g clip-path="url(#clip1_62_2134)">
<path d="M21.99 12.66V22.23H2.34998V12.7C2.67998 12.83 3.02998 12.9 3.39998 12.9C4.99998 12.9 6.29998 11.6 6.29998 9.97998C6.29998 11.59 7.59998 12.9 9.21998 12.9C10.82 12.9 12.12 11.6 12.12 9.97998C12.12 11.59 13.42 12.9 15.02 12.9C16.63 12.9 17.94 11.6 17.94 9.97998C17.94 11.59 19.24 12.9 20.84 12.9C21.26 12.89 21.64 12.8 21.99 12.66Z" fill="#E6E6E6"/>
<path d="M6.31003 7.07H0.650026C0.570026 7.07 0.510026 6.99 0.540026 6.92L2.23003 3.25C2.44003 2.79 2.90003 2.5 3.40003 2.5H7.14003L6.31003 7.07Z" fill="#E6E6E6"/>
<path d="M17.94 7.07H12.13V2.5H17.11L17.94 7.07Z" fill="#E6E6E6"/>
<path d="M12.13 7.07H6.31L7.14 2.5H12.13V7.07Z" fill="#E6E6E6"/>
<path d="M23.61 7.07H17.94L17.11 2.5H20.85C21.36 2.5 21.81 2.79 22.03 3.25L23.72 6.92C23.74 7 23.69 7.07 23.61 7.07Z" fill="#E6E6E6"/>
<path d="M9.47 22.25L5.56 22.22V16.75C5.56 15.67 6.44 14.79 7.52 14.79C8.6 14.79 9.48 15.67 9.48 16.77V22.25H9.47Z" fill="white"/>
<path d="M19.78 14.34H12.13V18.94H19.78V14.34Z" fill="white"/>
<path d="M12.13 7.07001V9.97001C12.13 11.58 10.83 12.89 9.23 12.89C7.62 12.89 6.31 11.59 6.31 9.97001V7.07001H12.13Z" fill="#E6E6E6"/>
<path d="M23.76 7.11001V9.97001C23.76 11.18 23.04 12.22 22 12.66C21.65 12.8 21.27 12.89 20.86 12.89C19.26 12.89 17.96 11.59 17.96 9.97001V7.07001H23.72C23.75 7.07001 23.76 7.09001 23.76 7.11001Z" fill="#E6E6E6"/>
<path d="M6.31 7.07001V9.97001C6.31 11.58 5.01 12.89 3.41 12.89C3.04 12.89 2.69 12.82 2.36 12.69C1.27 12.28 0.5 11.21 0.5 9.97001V7.19001C0.5 7.12001 0.54 7.07001 0.61 7.07001H6.31Z" fill="#E6E6E6"/>
<path d="M17.95 7.07001V9.97001C17.95 11.58 16.65 12.89 15.03 12.89C13.43 12.89 12.13 11.59 12.13 9.97001V7.07001H17.95Z" fill="#E6E6E6"/>
</g>
</g>
<defs>
<clipPath id="clip0_62_2134">
<rect width="24" height="24" fill="white"/>
</clipPath>
<clipPath id="clip1_62_2134">
<rect width="24.26" height="20.76" fill="white" transform="translate(0 2)"/>
</clipPath>
</defs>
</svg>
