<svg width="24" height="24" viewBox="0 0 24 24" fill="none" xmlns="http://www.w3.org/2000/svg">
<g id="vuesax/bold/airdrop">
<g id="vuesax/bold/airdrop_2">
<g id="airdrop">
<path id="Vector" d="M14.1297 11.34C14.5197 9.7 13.0897 8.27 11.4497 8.66C10.6797 8.85 10.0497 9.48 9.85974 10.25C9.46974 11.89 10.8997 13.32 12.5397 12.93C13.3197 12.74 13.9497 12.11 14.1297 11.34Z" fill="black"/>
<path id="Vector_2" d="M6.01996 17.97C5.83996 17.97 5.64996 17.9 5.50996 17.77C3.56996 15.97 2.45996 13.43 2.45996 10.79C2.45996 5.53 6.73996 1.25 12 1.25C17.26 1.25 21.54 5.53 21.54 10.79C21.54 13.45 20.47 15.91 18.53 17.74C18.23 18.02 17.75 18.01 17.47 17.71C17.19 17.41 17.2 16.93 17.5 16.65C19.14 15.11 20.04 13.04 20.04 10.8C20.04 6.37 16.43 2.76 12 2.76C7.56996 2.76 3.95996 6.37 3.95996 10.8C3.95996 13.06 4.86996 15.14 6.52996 16.68C6.82996 16.96 6.84996 17.44 6.56996 17.74C6.41996 17.89 6.21996 17.97 6.01996 17.97Z" fill="black"/>
<path id="Vector_3" d="M15.9995 15.3C15.8195 15.3 15.6295 15.23 15.4895 15.1C15.1895 14.82 15.1695 14.34 15.4595 14.04C16.2895 13.16 16.7495 12 16.7495 10.8C16.7495 8.18 14.6195 6.06 12.0095 6.06C9.39953 6.06 7.26953 8.19 7.26953 10.8C7.26953 12.01 7.72953 13.16 8.55953 14.04C8.83953 14.34 8.82953 14.82 8.52953 15.1C8.22953 15.39 7.74953 15.37 7.46953 15.07C6.37953 13.91 5.76953 12.39 5.76953 10.8C5.76953 7.36 8.56953 4.56 12.0095 4.56C15.4495 4.56 18.2495 7.36 18.2495 10.8C18.2495 12.39 17.6495 13.91 16.5495 15.07C16.3995 15.22 16.1995 15.3 15.9995 15.3Z" fill="black"/>
<path id="Vector_4" d="M10.2999 16.66L8.85988 18.45C7.71988 19.88 8.73989 22 10.5599 22H13.4299C15.2599 22 16.2799 19.88 15.1299 18.46L13.6899 16.67C12.8299 15.57 11.1699 15.57 10.2999 16.66Z" fill="black"/>
</g>
</g>
</g>
</svg>
