<svg width="24" height="21" viewBox="0 0 24 21" fill="none" xmlns="http://www.w3.org/2000/svg">
<g id="Frame" clip-path="url(#clip0_757_8143)">
<g id="Group">
<path id="Vector" d="M21.9896 10.66V20.23H2.34961V10.7C2.67961 10.83 3.02961 10.9 3.39961 10.9C4.99961 10.9 6.29961 9.60001 6.29961 7.98001C6.29961 9.59001 7.59961 10.9 9.21961 10.9C10.8196 10.9 12.1196 9.60001 12.1196 7.98001C12.1196 9.59001 13.4196 10.9 15.0196 10.9C16.6296 10.9 17.9396 9.60001 17.9396 7.98001C17.9396 9.59001 19.2396 10.9 20.8396 10.9C21.2596 10.89 21.6396 10.8 21.9896 10.66Z" fill="black"/>
<path id="Vector_2" d="M6.31009 5.07H0.650087C0.570087 5.07 0.510087 4.99 0.540087 4.92L2.23009 1.25C2.44009 0.79 2.90009 0.5 3.40009 0.5H7.14009L6.31009 5.07Z" fill="black"/>
<path id="Vector_3" d="M17.9399 5.07H12.1299V0.5H17.1099L17.9399 5.07Z" fill="black"/>
<path id="Vector_4" d="M12.1296 5.07H6.30957L7.13957 0.5H12.1296V5.07Z" fill="black"/>
<path id="Vector_5" d="M23.6104 5.07H17.9404L17.1104 0.5H20.8504C21.3604 0.5 21.8104 0.79 22.0304 1.25L23.7204 4.92C23.7404 5 23.6904 5.07 23.6104 5.07Z" fill="black"/>
<path id="Vector_6" d="M9.46957 20.25L5.55957 20.22V14.75C5.55957 13.67 6.43957 12.79 7.51957 12.79C8.59957 12.79 9.47957 13.67 9.47957 14.77V20.25H9.46957Z" fill="#FFFAED"/>
<path id="Vector_7" d="M19.7799 12.34H12.1299V16.94H19.7799V12.34Z" fill="#FFFAED"/>
<path id="Vector_8" d="M12.1296 5.07001V7.97001C12.1296 9.58001 10.8296 10.89 9.22957 10.89C7.61957 10.89 6.30957 9.59001 6.30957 7.97001V5.07001H12.1296Z" fill="black"/>
<path id="Vector_9" d="M23.76 5.11001V7.97001C23.76 9.18001 23.04 10.22 22 10.66C21.65 10.8 21.27 10.89 20.86 10.89C19.26 10.89 17.96 9.59001 17.96 7.97001V5.07001H23.72C23.75 5.07001 23.76 5.09001 23.76 5.11001Z" fill="black"/>
<path id="Vector_10" d="M6.31 5.07001V7.97001C6.31 9.58001 5.01 10.89 3.41 10.89C3.04 10.89 2.69 10.82 2.36 10.69C1.27 10.28 0.5 9.21001 0.5 7.97001V5.19001C0.5 5.12001 0.54 5.07001 0.61 5.07001H6.31Z" fill="black"/>
<path id="Vector_11" d="M17.9499 5.07001V7.97001C17.9499 9.58001 16.6499 10.89 15.0299 10.89C13.4299 10.89 12.1299 9.59001 12.1299 7.97001V5.07001H17.9499Z" fill="black"/>
</g>
</g>
<defs>
<clipPath id="clip0_757_8143">
<rect width="24.26" height="20.76" fill="white"/>
</clipPath>
</defs>
</svg>
