<svg width="10" height="13" viewBox="0 0 10 13" fill="none" xmlns="http://www.w3.org/2000/svg">
<path id="Path" fill-rule="evenodd" clip-rule="evenodd" d="M6.28175 12.5C5.42795 12.5 4.80565 12.2983 4.41486 11.882C4.02407 11.4657 3.83504 11.03 3.83504 10.5494C3.83504 10.3798 3.8669 10.2296 3.94124 10.1116C4.00495 9.99356 4.0984 9.89914 4.21522 9.83476C4.33203 9.77039 4.47858 9.72747 4.64849 9.72747C4.8184 9.72747 4.96494 9.75966 5.08176 9.83476C5.19857 9.89914 5.29202 9.99356 5.35574 10.1116C5.41945 10.2296 5.46193 10.3777 5.46193 10.5494C5.46193 10.7618 5.40883 10.9335 5.31326 11.0601C5.21768 11.1888 5.09238 11.2833 4.95432 11.3262C5.07114 11.485 5.26016 11.603 5.5129 11.6781C5.76564 11.7532 6.01839 11.7854 6.27325 11.7854C6.63219 11.7854 6.94864 11.6888 7.23324 11.4979C7.51784 11.3069 7.72811 11.0193 7.86616 10.6459C8.00421 10.2725 8.0658 9.84764 8.0658 9.36695C8.0658 8.84549 7.99147 8.40773 7.84492 8.04506C7.69625 7.67167 7.48598 7.39485 7.20138 7.22532C6.91679 7.04506 6.61095 6.95923 6.27325 6.95923C6.05237 6.95923 5.78901 7.05579 5.46193 7.23605L4.86724 7.52361V7.22532L7.55607 3.603H3.83504V7.36481C3.83504 7.67382 3.89876 7.92918 4.03469 8.13305C4.17274 8.33476 4.383 8.43133 4.65698 8.43133C4.87786 8.43133 5.07963 8.35622 5.27928 8.20815C5.47892 8.05794 5.64883 7.87768 5.79538 7.67597C5.81662 7.63305 5.83786 7.60086 5.85909 7.59013C5.89095 7.56867 5.91219 7.55794 5.94405 7.55794C5.99715 7.55794 6.05024 7.5794 6.12246 7.63305C6.18617 7.70815 6.21803 7.79185 6.21803 7.88841C6.21803 7.93133 6.19679 7.99571 6.18617 8.0794C6.0375 8.43133 5.82724 8.69743 5.55326 8.87768C5.27928 9.05794 4.98406 9.15451 4.65698 9.15451C3.84566 9.15451 3.29558 8.99571 2.97912 8.67597C2.67328 8.35622 2.51612 7.91846 2.51612 7.37554V3.603H0.617371V2.89914H2.52673V1.30043L2.09346 0.862661V0.5H3.35929L3.83292 0.744635V2.88841L8.75818 2.87768L9.24243 3.36695L6.22865 6.42704C6.40705 6.35193 6.5982 6.30901 6.79785 6.28755C7.12492 6.28755 7.49448 6.39485 7.89377 6.6073C8.3058 6.80901 8.62226 7.09657 8.84314 7.45923C9.06402 7.82189 9.21269 8.16309 9.27641 8.49356C9.34013 8.82403 9.3826 9.11159 9.3826 9.37768C9.3826 9.96352 9.25517 10.5064 9.01305 11.0086C8.77093 11.5086 8.40137 11.8927 7.89589 12.1373C7.3989 12.382 6.86156 12.5 6.28175 12.5Z" fill="#3391F6"/>
</svg>
