<svg width="72" height="73" viewBox="0 0 72 73" fill="none" xmlns="http://www.w3.org/2000/svg">
<g id="Interface essential/Pluse regtangle">
<g id="Icon">
<path fill-rule="evenodd" clip-rule="evenodd" d="M18 6.50024H54C60.6274 6.50024 66 11.8728 66 18.5002V54.5002C66 61.1277 60.6274 66.5002 54 66.5002H18C11.3726 66.5002 6 61.1277 6 54.5002V18.5002C6 11.8728 11.3726 6.50024 18 6.50024ZM59.1124 59.6126C60.4683 58.2567 61.23 56.4178 61.23 54.5002V18.5002C61.23 16.5827 60.4683 14.7438 59.1124 13.3879C57.7565 12.032 55.9175 11.2702 54 11.2702H18C14.007 11.2702 10.77 14.5072 10.77 18.5002V54.5002C10.77 56.4178 11.5317 58.2567 12.8876 59.6126C14.2435 60.9685 16.0825 61.7302 18 61.7302H54C55.9175 61.7302 57.7565 60.9685 59.1124 59.6126Z" fill="black"/>
<path d="M48 34.2502H38.25V24.5002C38.25 23.2576 37.2426 22.2502 36 22.2502C34.7574 22.2502 33.75 23.2576 33.75 24.5002V34.2502H24C22.7574 34.2502 21.75 35.2576 21.75 36.5002C21.75 37.7429 22.7574 38.7502 24 38.7502H33.75V48.5002C33.75 49.7429 34.7574 50.7502 36 50.7502C37.2426 50.7502 38.25 49.7429 38.25 48.5002V38.7502H48C49.2426 38.7502 50.25 37.7429 50.25 36.5002C50.25 35.2576 49.2426 34.2502 48 34.2502Z" fill="black"/>
</g>
</g>
</svg>
