<svg width="24" height="24" viewBox="0 0 24 24" fill="none" xmlns="http://www.w3.org/2000/svg">
<g id="64">
<g id="Group">
<path id="Vector" d="M7.53 16.65H4.5" stroke="#8D8D8D" stroke-width="1.2" stroke-miterlimit="10" stroke-linecap="round" stroke-linejoin="round"/>
<path id="Vector_2" d="M19.4999 16.65H14.1699" stroke="#8D8D8D" stroke-width="1.2" stroke-miterlimit="10" stroke-linecap="round" stroke-linejoin="round"/>
<path id="Vector_3" d="M16.4697 7.65H19.4997" stroke="#8D8D8D" stroke-width="1.2" stroke-miterlimit="10" stroke-linecap="round" stroke-linejoin="round"/>
<path id="Vector_4" d="M4.5 7.65H9.83" stroke="#8D8D8D" stroke-width="1.2" stroke-miterlimit="10" stroke-linecap="round" stroke-linejoin="round"/>
<path id="Vector_5" d="M9.68027 18.8C10.8677 18.8 11.8303 17.8374 11.8303 16.65C11.8303 15.4626 10.8677 14.5 9.68027 14.5C8.49286 14.5 7.53027 15.4626 7.53027 16.65C7.53027 17.8374 8.49286 18.8 9.68027 18.8Z" fill="black"/>
<path id="Vector_6" d="M14.3102 9.8C15.4976 9.8 16.4602 8.83741 16.4602 7.65C16.4602 6.46259 15.4976 5.5 14.3102 5.5C13.1227 5.5 12.1602 6.46259 12.1602 7.65C12.1602 8.83741 13.1227 9.8 14.3102 9.8Z" fill="black"/>
</g>
</g>
</svg>
