<svg width="24" height="24" viewBox="0 0 24 24" fill="none" xmlns="http://www.w3.org/2000/svg">
<g id="63">
<g id="Group 1710">
<path id="Vector" d="M18.6376 12.3195C18.6376 12.3084 18.6376 12.3084 18.6376 12.2973C18.6376 11.1111 19.1254 9.99137 20.0789 9.29293L20.1565 9.2375L18.7042 6.70983C17.6288 7.19763 16.3871 7.13111 15.3672 6.54354L15.2009 6.44376C14.181 5.87836 13.5047 4.82517 13.3828 3.65002H10.4671C10.3451 4.82517 9.66885 5.86728 8.64892 6.46593L8.48263 6.55463C7.46269 7.1422 6.22103 7.20871 5.14566 6.72092L3.69336 9.24859L3.77096 9.30402C4.73547 9.99137 5.22326 11.1222 5.21218 12.3084C5.21218 12.3195 5.21218 12.3195 5.21218 12.3306C5.21218 12.3417 5.21218 12.3417 5.21218 12.3527C5.21218 13.539 4.72438 14.6587 3.77096 15.3571L3.69336 15.3904L5.14566 17.918L5.22326 17.8848C6.29863 17.397 7.52921 17.53 8.54914 18.1287C8.56023 18.1398 8.57131 18.1398 8.5824 18.1509C9.61342 18.7384 10.334 19.7362 10.456 20.9113L10.4671 21H13.3828L13.3938 20.9113C13.5158 19.7362 14.2364 18.7384 15.2674 18.1509C15.2785 18.1398 15.2896 18.1398 15.3007 18.1287C16.3206 17.5411 17.5512 17.397 18.6266 17.8848L18.7042 17.918L20.1565 15.3904L20.0789 15.3349C19.1144 14.6476 18.6266 13.5168 18.6376 12.3306V12.3195Z" fill="black"/>
<path id="Vector_2" d="M11.9309 14.8139C13.3086 14.8139 14.4253 13.6971 14.4253 12.3195C14.4253 10.9419 13.3086 9.82508 11.9309 9.82508C10.5533 9.82508 9.43652 10.9419 9.43652 12.3195C9.43652 13.6971 10.5533 14.8139 11.9309 14.8139Z" fill="#FFFAED"/>
</g>
</g>
</svg>
