<svg width="10" height="12" viewBox="0 0 10 12" fill="none" xmlns="http://www.w3.org/2000/svg">
<path id="Path" fill-rule="evenodd" clip-rule="evenodd" d="M6.28181 12C5.42801 12 4.80571 11.7983 4.41492 11.382C4.02413 10.9657 3.8351 10.53 3.8351 10.0494C3.8351 9.87983 3.86696 9.72961 3.9413 9.61159C4.00501 9.49356 4.09846 9.39914 4.21528 9.33476C4.33209 9.27039 4.47864 9.22747 4.64855 9.22747C4.81846 9.22747 4.965 9.25966 5.08182 9.33476C5.19863 9.39914 5.29208 9.49356 5.3558 9.61159C5.41951 9.72961 5.46199 9.87768 5.46199 10.0494C5.46199 10.2618 5.40889 10.4335 5.31332 10.5601C5.21775 10.6888 5.09244 10.7833 4.95438 10.8262C5.0712 10.985 5.26022 11.103 5.51296 11.1781C5.76571 11.2532 6.01845 11.2854 6.27331 11.2854C6.63225 11.2854 6.9487 11.1888 7.2333 10.9979C7.5179 10.8069 7.72817 10.5193 7.86622 10.1459C8.00427 9.77253 8.06586 9.34764 8.06586 8.86695C8.06586 8.34549 7.99153 7.90773 7.84498 7.54506C7.69631 7.17167 7.48604 6.89485 7.20145 6.72532C6.91685 6.54506 6.61101 6.45923 6.27331 6.45923C6.05243 6.45923 5.78907 6.55579 5.46199 6.73605L4.86731 7.02361V6.72532L7.55613 3.103H3.8351V6.86481C3.8351 7.17382 3.89882 7.42918 4.03475 7.63305C4.1728 7.83476 4.38306 7.93133 4.65704 7.93133C4.87793 7.93133 5.07969 7.85622 5.27934 7.70815C5.47898 7.55794 5.64889 7.37768 5.79544 7.17597C5.81668 7.13305 5.83792 7.10086 5.85916 7.09013C5.89101 7.06867 5.91225 7.05794 5.94411 7.05794C5.99721 7.05794 6.0503 7.0794 6.12252 7.13305C6.18623 7.20815 6.21809 7.29185 6.21809 7.38841C6.21809 7.43133 6.19685 7.49571 6.18623 7.5794C6.03756 7.93133 5.8273 8.19742 5.55332 8.37768C5.27934 8.55794 4.98412 8.65451 4.65704 8.65451C3.84572 8.65451 3.29564 8.49571 2.97918 8.17597C2.67334 7.85622 2.51618 7.41846 2.51618 6.87554V3.103H0.617432V2.39914H2.5268V0.800429L2.09353 0.362661V0H3.35935L3.83298 0.244635V2.38841L8.75825 2.37768L9.24249 2.86695L6.22871 5.92704C6.40712 5.85193 6.59826 5.80901 6.79791 5.78755C7.12499 5.78755 7.49454 5.89485 7.89383 6.1073C8.30586 6.30901 8.62232 6.59657 8.8432 6.95923C9.06408 7.32189 9.21276 7.66309 9.27647 7.99356C9.34019 8.32403 9.38267 8.61159 9.38267 8.87768C9.38267 9.46352 9.25523 10.0064 9.01311 10.5086C8.77099 11.0086 8.40143 11.3927 7.89595 11.6373C7.39897 11.882 6.86163 12 6.28181 12Z" fill="#3391F6"/>
</svg>
