<svg width="16" height="14" viewBox="0 0 16 14" fill="none" xmlns="http://www.w3.org/2000/svg">
<path id="Vector" d="M14.7655 5.03139C14.7722 2.80436 12.9647 1 10.7414 1C9.68271 1 8.72166 1.41056 8.00358 2.07595C7.28707 1.41082 6.32743 1 5.26439 1C3.03985 1 1.23453 2.80533 1.23453 5.02986C1.23453 5.86052 1.53234 6.67112 1.92501 7.39197C2.32244 8.12155 2.85573 8.8294 3.41627 9.47315C4.53716 10.7604 5.84755 11.8822 6.64192 12.5213L6.64535 12.5241C7.43829 13.1563 8.56403 13.162 9.35843 12.521C10.1558 11.879 11.4661 10.7557 12.5861 9.46852C13.1463 8.82482 13.6789 8.11739 14.0758 7.38863C14.4677 6.66912 14.7651 5.86014 14.7655 5.03139ZM14.7655 5.03139C14.7655 5.03204 14.7655 5.0327 14.7655 5.03335L13.7655 5.02986H14.7655C14.7655 5.03037 14.7655 5.03088 14.7655 5.03139ZM8.6483 2.84208C8.38293 3.09568 8.16323 3.39653 8.00292 3.73052C7.84247 3.39626 7.62317 3.09518 7.35815 2.84146L8.6483 2.84208Z" fill="white" stroke="#4B81A3" stroke-width="2" stroke-miterlimit="10" stroke-linecap="round" stroke-linejoin="round"/>
</svg>
